<svg width="24" height="24" viewBox="0 0 24 24" fill="none" xmlns="http://www.w3.org/2000/svg">
  <path fill-rule="evenodd" clip-rule="evenodd" d="M7.70151 3.86322C7.49402 3.52018 7.05399 3.40009 6.701 3.59016L4.4717 4.79055C3.71779 5.1965 3.37999 6.0972 3.68101 6.8988L4.0602 7.90855C6.3034 13.8819 11.1619 18.4969 17.2427 20.4301C17.9216 20.6459 18.658 20.3479 18.9958 19.7207L20.3383 17.2275C20.5284 16.8745 20.4083 16.4344 20.0652 16.2269L16.6858 14.1828C16.6009 14.1315 16.4937 14.1348 16.4121 14.1914L14.5278 15.4993C14.125 15.7789 13.6017 15.8164 13.1631 15.5971C11.0722 14.5517 9.37678 12.8563 8.33134 10.7654C8.11204 10.3268 8.14954 9.80347 8.42916 9.40063L9.73703 7.51633C9.79363 7.43478 9.797 7.32758 9.74562 7.24264L7.70151 3.86322ZM5.98985 2.26945C7.04656 1.70045 8.36383 2.05996 8.98499 3.08689L11.0291 6.46631C11.3868 7.05761 11.3633 7.80393 10.9693 8.37163L9.71534 10.1782C10.6045 11.9126 12.0159 13.324 13.7502 14.2131L15.5568 12.9592C16.1245 12.5651 16.8708 12.5417 17.4621 12.8994L20.8416 14.9435C21.8685 15.5646 22.228 16.8819 21.659 17.9386L20.3165 20.4318C19.6367 21.6943 18.1546 22.294 16.7882 21.8596C10.2693 19.7871 5.06077 14.8397 2.65595 8.43588L2.27676 7.42614C1.71187 5.92188 2.34578 4.23164 3.76055 3.46985L5.98985 2.26945Z" fill="#A6A6A6"/>
  </svg>
  