<svg width="25" height="24" viewBox="0 0 25 24" fill="none" xmlns="http://www.w3.org/2000/svg">
  <path fill-rule="evenodd" clip-rule="evenodd" d="M21.5713 9.75H3.57129V8.25H21.5713V9.75Z" fill="#A6A6A6"/>
  <path fill-rule="evenodd" clip-rule="evenodd" d="M5.82129 15C5.82129 14.5858 6.15708 14.25 6.57129 14.25L10.5713 14.25C10.9855 14.25 11.3213 14.5858 11.3213 15C11.3213 15.4142 10.9855 15.75 10.5713 15.75L6.57129 15.75C6.15708 15.75 5.82129 15.4142 5.82129 15Z" fill="#A6A6A6"/>
  <path fill-rule="evenodd" clip-rule="evenodd" d="M2.82129 7C2.82129 5.48122 4.05251 4.25 5.57129 4.25H19.5713C21.0901 4.25 22.3213 5.48122 22.3213 7V17C22.3213 18.5188 21.0901 19.75 19.5713 19.75H5.57129C4.05251 19.75 2.82129 18.5188 2.82129 17V7ZM5.57129 5.75C4.88093 5.75 4.32129 6.30964 4.32129 7V17C4.32129 17.6904 4.88093 18.25 5.57129 18.25H19.5713C20.2616 18.25 20.8213 17.6904 20.8213 17V7C20.8213 6.30964 20.2616 5.75 19.5713 5.75H5.57129Z" fill="#4D4D4D"/>
  </svg>
  