<svg width="25" height="24" viewBox="0 0 25 24" fill="none" xmlns="http://www.w3.org/2000/svg">
  <path d="M4.89258 4C4.89258 3.30964 5.45222 2.75 6.14258 2.75H18.1426C18.8329 2.75 19.3926 3.30964 19.3926 4V19.9681C19.3926 21.0194 18.0542 21.4655 17.4235 20.6245C16.524 19.4253 14.7983 19.2358 13.6602 20.2114L12.9561 20.8149C12.488 21.2162 11.7972 21.2162 11.3291 20.8149L10.625 20.2114C9.48684 19.2358 7.76112 19.4253 6.8617 20.6245C6.23092 21.4655 4.89258 21.0194 4.89258 19.9681V4Z" stroke="#4D4D4D" stroke-width="1.5"/>
  <path d="M9.14258 7H15.1426" stroke="#A6A6A6" stroke-width="1.5" stroke-linecap="round"/>
  <path d="M9.14258 11H15.1426" stroke="#4D4D4D" stroke-width="1.5" stroke-linecap="round"/>
  <path d="M9.14258 15H15.1426" stroke="#A6A6A6" stroke-width="1.5" stroke-linecap="round"/>
  </svg>
  