<svg width="25" height="24" viewBox="0 0 25 24" fill="none" xmlns="http://www.w3.org/2000/svg">
  <path fill-rule="evenodd" clip-rule="evenodd" d="M12.8569 5.25C13.2711 5.25 13.6069 5.58579 13.6069 6L13.6069 18C13.6069 18.4142 13.2711 18.75 12.8569 18.75C12.4427 18.75 12.1069 18.4142 12.1069 18L12.1069 6C12.1069 5.58579 12.4427 5.25 12.8569 5.25Z" fill="#A6A6A6"/>
  <path fill-rule="evenodd" clip-rule="evenodd" d="M6.10693 12C6.10693 11.5858 6.44272 11.25 6.85693 11.25H18.8569C19.2711 11.25 19.6069 11.5858 19.6069 12C19.6069 12.4142 19.2711 12.75 18.8569 12.75H6.85693C6.44272 12.75 6.10693 12.4142 6.10693 12Z" fill="#4D4D4D"/>
  </svg>
  