<svg width="25" height="24" viewBox="0 0 25 24" fill="none" xmlns="http://www.w3.org/2000/svg">
  <path d="M8.28564 7.51562V9.30659M8.28564 16.485V12.2502" stroke="#A6A6A6" stroke-width="1.5" stroke-linecap="round"/>
  <path d="M16.2856 7.51562L16.2856 11.4759M16.2856 16.485L16.2856 14.4196" stroke="#A6A6A6" stroke-width="1.5" stroke-linecap="round"/>
  <path d="M21.5356 15.0001V17.0004C21.5356 18.6572 20.1925 20.0004 18.5356 20.0004H15.7544M21.5356 8.99977V6.9995C21.5356 5.34264 20.1925 3.9995 18.5356 3.9995H15.7544M3.03564 15.0001V17.0004C3.03564 18.6572 4.37879 20.0004 6.03564 20.0004H8.81689M3.03564 8.99977V6.9995C3.03564 5.34264 4.37879 3.9995 6.03564 3.9995H8.81689" stroke="#4D4D4D" stroke-width="1.5" stroke-linecap="round"/>
  <path d="M6.09033 12.1318L18.481 12.1318" stroke="#4D4D4D" stroke-width="1.5" stroke-linecap="round"/>
  <path d="M12.2856 7.51562L12.2856 12.1574M12.2856 16.485L12.2856 15.101" stroke="#4D4D4D" stroke-width="1.5" stroke-linecap="round"/>
  </svg>
  