<svg width="25" height="24" viewBox="0 0 25 24" fill="none" xmlns="http://www.w3.org/2000/svg">
  <path fill-rule="evenodd" clip-rule="evenodd" d="M16.6328 15.9635C16.9256 15.6706 17.4005 15.6706 17.6934 15.9635L22.3519 20.622C22.6448 20.9149 22.6448 21.3898 22.3519 21.6827C22.059 21.9756 21.5842 21.9756 21.2913 21.6827L16.6328 17.0242C16.3399 16.7313 16.3399 16.2564 16.6328 15.9635Z" fill="#A6A6A6"/>
  <path fill-rule="evenodd" clip-rule="evenodd" d="M11.2844 3.6198C7.30069 3.6198 4.07129 6.8492 4.07129 10.8329C4.07129 14.8165 7.30069 18.0459 11.2844 18.0459C15.268 18.0459 18.4974 14.8165 18.4974 10.8329C18.4974 6.8492 15.268 3.6198 11.2844 3.6198ZM2.57129 10.8329C2.57129 6.02078 6.47226 2.1198 11.2844 2.1198C16.0964 2.1198 19.9974 6.02078 19.9974 10.8329C19.9974 15.645 16.0964 19.5459 11.2844 19.5459C6.47226 19.5459 2.57129 15.645 2.57129 10.8329Z" fill="#4D4D4D"/>
  </svg>
  