<svg width="25" height="24" viewBox="0 0 25 24" fill="none" xmlns="http://www.w3.org/2000/svg">
  <path fill-rule="evenodd" clip-rule="evenodd" d="M10.9941 2C10.3557 2 9.81995 2.48099 9.75134 3.11565L9.49769 5.46192C9.28413 5.57184 9.07669 5.6919 8.87601 5.82143L6.71643 4.8676C6.1325 4.60969 5.44805 4.83321 5.12887 5.38604L3.26523 8.61396C2.94605 9.16679 3.09471 9.87129 3.61003 10.248L5.5163 11.6417C5.51059 11.7605 5.5077 11.8799 5.5077 12C5.5077 12.1201 5.51059 12.2395 5.5163 12.3583L3.61003 13.752C3.09471 14.1287 2.94605 14.8332 3.26523 15.386L5.12887 18.614C5.44805 19.1668 6.1325 19.3903 6.71643 19.1324L8.87601 18.1786C9.07669 18.3081 9.28413 18.4282 9.49769 18.5381L9.75134 20.8844C9.81995 21.519 10.3557 22 10.9941 22H14.7214C15.3597 22 15.8955 21.519 15.9641 20.8844L16.2179 18.5371C16.4309 18.4274 16.6379 18.3076 16.8381 18.1783L18.9982 19.1324C19.5821 19.3903 20.2666 19.1668 20.5857 18.614L22.4494 15.386C22.7686 14.8332 22.6199 14.1287 22.1046 13.752L20.1975 12.3577C20.2031 12.2391 20.206 12.1199 20.206 12C20.206 11.8801 20.2031 11.7609 20.1975 11.6423L22.1046 10.248C22.6199 9.87129 22.7686 9.16679 22.4494 8.61396L20.5857 5.38604C20.2666 4.8332 19.5821 4.60969 18.9982 4.8676L16.8381 5.82166C16.6379 5.69242 16.4309 5.57261 16.2179 5.46288L15.9641 3.11565C15.8955 2.48099 15.3597 2 14.7214 2H10.9941ZM10.9443 6.0388L11.2188 3.5H14.4972L14.7718 6.03962C14.8006 6.30616 14.9695 6.53705 15.2148 6.64523C15.6054 6.81751 15.9739 7.03143 16.3145 7.28148C16.5309 7.44035 16.8158 7.47143 17.0614 7.36296L19.3992 6.3304L21.0384 9.16959L18.9752 10.678C18.7589 10.8361 18.6434 11.0976 18.6722 11.3639C18.6947 11.5726 18.7063 11.7848 18.7063 12C18.7063 12.2152 18.6947 12.4274 18.6722 12.636C18.6434 12.9024 18.7589 13.1639 18.9752 13.322L21.0384 14.8304L19.3992 17.6696L17.0614 16.637C16.8158 16.5286 16.5309 16.5596 16.3145 16.7185C15.9739 16.9686 15.6054 17.1825 15.2148 17.3548C14.9695 17.4629 14.8006 17.6938 14.7718 17.9604L14.4972 20.5H11.2188L10.9443 17.9612C10.9155 17.6946 10.7465 17.4636 10.5011 17.3555C10.11 17.1831 9.74106 16.969 9.40006 16.7187C9.18364 16.5599 8.89882 16.5288 8.65325 16.6373L6.31597 17.6696L4.67676 14.8304L6.73914 13.3226C6.95543 13.1645 7.07094 12.903 7.04215 12.6366C7.01958 12.4277 7.00798 12.2154 7.00798 12C7.00798 11.7846 7.01958 11.5723 7.04216 11.3634C7.07094 11.097 6.95544 10.8355 6.73914 10.6774L4.67676 9.1696L6.31597 6.3304L8.65325 7.36272C8.89883 7.47118 9.18365 7.44011 9.40006 7.28126C9.74106 7.03096 10.11 6.81687 10.5011 6.64451C10.7465 6.53638 10.9155 6.30543 10.9443 6.0388Z" fill="#4D4D4D"/>
  <path fill-rule="evenodd" clip-rule="evenodd" d="M12.8569 9.75C11.6143 9.75 10.6069 10.7574 10.6069 12C10.6069 13.2426 11.6143 14.25 12.8569 14.25C14.0996 14.25 15.1069 13.2426 15.1069 12C15.1069 10.7574 14.0996 9.75 12.8569 9.75ZM9.10693 12C9.10693 9.92893 10.7859 8.25 12.8569 8.25C14.928 8.25 16.6069 9.92893 16.6069 12C16.6069 14.0711 14.928 15.75 12.8569 15.75C10.7859 15.75 9.10693 14.0711 9.10693 12Z" fill="#A6A6A6"/>
  </svg>
  