<svg width="25" height="24" viewBox="0 0 25 24" fill="none" xmlns="http://www.w3.org/2000/svg">
  <path fill-rule="evenodd" clip-rule="evenodd" d="M12.1431 13.25C12.5573 13.25 12.8931 13.5858 12.8931 14V19C12.8931 19.4142 12.5573 19.75 12.1431 19.75C11.7289 19.75 11.3931 19.4142 11.3931 19V14C11.3931 13.5858 11.7289 13.25 12.1431 13.25Z" fill="#4D4D4D"/>
  <path fill-rule="evenodd" clip-rule="evenodd" d="M12.1431 10.75C11.4527 10.75 10.8931 11.3096 10.8931 12C10.8931 12.6903 11.4527 13.25 12.1431 13.25C12.8334 13.25 13.3931 12.6903 13.3931 12C13.3931 11.3096 12.8334 10.75 12.1431 10.75ZM9.39307 12C9.39307 10.4812 10.6243 9.24999 12.1431 9.24999C13.6618 9.24999 14.8931 10.4812 14.8931 12C14.8931 13.5188 13.6618 14.75 12.1431 14.75C10.6243 14.75 9.39307 13.5188 9.39307 12Z" fill="#A6A6A6"/>
  <path fill-rule="evenodd" clip-rule="evenodd" d="M14.4878 6.63529C14.6893 6.27335 15.146 6.14322 15.5079 6.34465C17.5204 7.4646 18.8932 9.57046 18.8932 12C18.8932 14.4295 17.5204 16.5354 15.5079 17.6554C15.146 17.8568 14.6893 17.7266 14.4878 17.3647C14.2864 17.0028 14.4166 16.5461 14.7785 16.3446C16.3528 15.4685 17.3932 13.8435 17.3932 12C17.3932 10.1565 16.3528 8.53149 14.7785 7.65535C14.4166 7.45393 14.2864 6.99723 14.4878 6.63529Z" fill="#A6A6A6"/>
  <path fill-rule="evenodd" clip-rule="evenodd" d="M9.79828 6.63529C9.59686 6.27335 9.14016 6.14322 8.77822 6.34465C6.76576 7.4646 5.39293 9.57046 5.39293 12C5.39293 14.4295 6.76576 16.5354 8.77822 17.6554C9.14016 17.8568 9.59686 17.7266 9.79828 17.3647C9.99971 17.0028 9.86958 16.5461 9.50764 16.3446C7.9333 15.4685 6.89293 13.8435 6.89293 12C6.89293 10.1565 7.9333 8.53149 9.50764 7.65535C9.86958 7.45393 9.99971 6.99723 9.79828 6.63529Z" fill="#A6A6A6"/>
  <path fill-rule="evenodd" clip-rule="evenodd" d="M15.4817 3.64658C15.6769 3.28124 16.1313 3.1433 16.4966 3.33848C19.7003 5.05004 21.8932 8.27285 21.8932 12C21.8932 15.7271 19.7003 18.95 16.4966 20.6615C16.1313 20.8567 15.6769 20.7188 15.4817 20.3534C15.2865 19.9881 15.4245 19.5337 15.7898 19.3385C18.5641 17.8563 20.3932 15.1098 20.3932 12C20.3932 8.89022 18.5641 6.1437 15.7898 4.66151C15.4245 4.46632 15.2865 4.01193 15.4817 3.64658Z" fill="#4D4D4D"/>
  <path fill-rule="evenodd" clip-rule="evenodd" d="M8.80443 3.64658C8.60925 3.28124 8.15485 3.1433 7.78951 3.33848C4.58584 5.05004 2.39292 8.27285 2.39292 12C2.39292 15.7271 4.58584 18.95 7.78951 20.6615C8.15485 20.8567 8.60925 20.7188 8.80443 20.3534C8.99962 19.9881 8.86167 19.5337 8.49633 19.3385C5.72199 17.8563 3.89292 15.1098 3.89292 12C3.89292 8.89022 5.72199 6.1437 8.49633 4.66151C8.86167 4.46632 8.99962 4.01193 8.80443 3.64658Z" fill="#4D4D4D"/>
  </svg>
  