<svg width="25" height="24" viewBox="0 0 25 24" fill="none" xmlns="http://www.w3.org/2000/svg">
  <path fill-rule="evenodd" clip-rule="evenodd" d="M2.28564 17.002C2.28564 16.5877 2.62143 16.252 3.03564 16.252L5.48857 16.252C5.90278 16.252 6.23857 16.5877 6.23857 17.002C6.23857 17.4162 5.90278 17.752 5.48857 17.752L3.03564 17.752C2.62143 17.752 2.28564 17.4162 2.28564 17.002Z" fill="#4D4D4D"/>
  <path fill-rule="evenodd" clip-rule="evenodd" d="M2.28564 6.99805C2.28564 6.58383 2.62143 6.24805 3.03564 6.24805L5.48857 6.24805C5.90278 6.24805 6.23857 6.58383 6.23857 6.99805C6.23857 7.41226 5.90278 7.74805 5.48857 7.74805L3.03564 7.74805C2.62143 7.74805 2.28564 7.41226 2.28564 6.99805Z" fill="#4D4D4D"/>
  <path fill-rule="evenodd" clip-rule="evenodd" d="M13.5356 8C13.5356 7.58579 13.8714 7.25 14.2856 7.25L18.2856 7.25C18.6999 7.25 19.0356 7.58579 19.0356 8C19.0356 8.41421 18.6999 8.75 18.2856 8.75L14.2856 8.75C13.8714 8.75 13.5356 8.41421 13.5356 8Z" fill="#A6A6A6"/>
  <path fill-rule="evenodd" clip-rule="evenodd" d="M13.5356 12C13.5356 11.5858 13.8714 11.25 14.2856 11.25L18.2856 11.25C18.6999 11.25 19.0356 11.5858 19.0356 12C19.0356 12.4142 18.6999 12.75 18.2856 12.75L14.2856 12.75C13.8714 12.75 13.5356 12.4142 13.5356 12Z" fill="#A6A6A6"/>
  <path fill-rule="evenodd" clip-rule="evenodd" d="M13.5356 16C13.5356 15.5858 13.8714 15.25 14.2856 15.25L18.2856 15.25C18.6999 15.25 19.0356 15.5858 19.0356 16C19.0356 16.4142 18.6999 16.75 18.2856 16.75L14.2856 16.75C13.8714 16.75 13.5356 16.4142 13.5356 16Z" fill="#A6A6A6"/>
  <path fill-rule="evenodd" clip-rule="evenodd" d="M7.29053 20.7324L7.29053 3.2391L8.79053 3.2391L8.79053 20.7324H7.29053Z" fill="#A6A6A6"/>
  <path fill-rule="evenodd" clip-rule="evenodd" d="M5.78278 21.75C4.52146 21.75 3.53565 20.7037 3.53565 19.459L3.53564 4.54098C3.53564 3.29626 4.52146 2.25 5.78278 2.25L19.7885 2.25C21.0498 2.25 22.0356 3.29626 22.0356 4.54098V19.459C22.0356 20.7037 21.0498 21.75 19.7885 21.75H5.78278ZM5.03565 19.459C5.03565 19.9164 5.39041 20.25 5.78278 20.25H19.7885C20.1809 20.25 20.5356 19.9164 20.5356 19.459V4.54098C20.5356 4.08358 20.1809 3.75 19.7885 3.75L5.78278 3.75C5.39041 3.75 5.03564 4.08358 5.03564 4.54098L5.03565 19.459Z" fill="#4D4D4D"/>
  <path d="M12.2856 8C12.2856 8.55228 11.8379 9 11.2856 9C10.7334 9 10.2856 8.55228 10.2856 8C10.2856 7.44772 10.7334 7 11.2856 7C11.8379 7 12.2856 7.44772 12.2856 8Z" fill="#A6A6A6"/>
  <path d="M12.2856 12C12.2856 12.5523 11.8379 13 11.2856 13C10.7334 13 10.2856 12.5523 10.2856 12C10.2856 11.4477 10.7334 11 11.2856 11C11.8379 11 12.2856 11.4477 12.2856 12Z" fill="#A6A6A6"/>
  <path d="M12.2856 16C12.2856 16.5523 11.8379 17 11.2856 17C10.7334 17 10.2856 16.5523 10.2856 16C10.2856 15.4477 10.7334 15 11.2856 15C11.8379 15 12.2856 15.4477 12.2856 16Z" fill="#A6A6A6"/>
  </svg>
  