<svg width="25" height="24" viewBox="0 0 25 24" fill="none" xmlns="http://www.w3.org/2000/svg">
  <path fill-rule="evenodd" clip-rule="evenodd" d="M2.50706 2.90978C2.69496 2.54063 3.14653 2.39371 3.51568 2.58161L4.99123 3.3327C5.52426 3.60401 5.8818 4.12876 5.93928 4.72409L6.82109 13.8571H16.8413C17.2555 13.8571 17.5913 14.1929 17.5913 14.6071C17.5913 15.0214 17.2555 15.3571 16.8413 15.3571H6.3569C5.91313 15.7005 5.84938 16.3692 6.25554 16.7899L6.40298 16.9426C6.4384 16.9793 6.48721 17 6.53821 17H20.14C20.5542 17 20.89 17.3358 20.89 17.75C20.89 18.1642 20.5542 18.5 20.14 18.5H6.53821C6.08026 18.5 5.64197 18.3139 5.32388 17.9845L5.17644 17.8318C4.16546 16.7847 4.29458 15.1359 5.35119 14.2411L4.44622 4.86825C4.43801 4.7832 4.38693 4.70824 4.31079 4.66948L2.83523 3.91839C2.46609 3.73049 2.31916 3.27892 2.50706 2.90978Z" fill="#4D4D4D"/>
  <path fill-rule="evenodd" clip-rule="evenodd" d="M17.6401 18.5C17.2259 18.5 16.8901 18.8358 16.8901 19.25C16.8901 19.6642 17.2259 20 17.6401 20C18.0544 20 18.3901 19.6642 18.3901 19.25C18.3901 18.8358 18.0544 18.5 17.6401 18.5ZM15.3901 19.25C15.3901 18.0074 16.3975 17 17.6401 17C18.8828 17 19.8901 18.0074 19.8901 19.25C19.8901 20.4926 18.8828 21.5 17.6401 21.5C16.3975 21.5 15.3901 20.4926 15.3901 19.25Z" fill="#4D4D4D"/>
  <path fill-rule="evenodd" clip-rule="evenodd" d="M8.64014 18.5C8.22592 18.5 7.89014 18.8358 7.89014 19.25C7.89014 19.6642 8.22592 20 8.64014 20C9.05435 20 9.39014 19.6642 9.39014 19.25C9.39014 18.8358 9.05435 18.5 8.64014 18.5ZM6.39014 19.25C6.39014 18.0074 7.3975 17 8.64014 17C9.88278 17 10.8901 18.0074 10.8901 19.25C10.8901 20.4926 9.88278 21.5 8.64014 21.5C7.3975 21.5 6.39014 20.4926 6.39014 19.25Z" fill="#4D4D4D"/>
  <path fill-rule="evenodd" clip-rule="evenodd" d="M4.63477 5.8135L20.3628 6.77783C21.5259 6.84914 22.2957 8.01582 21.9038 9.11314L20.3253 13.5328C19.9345 14.6273 18.8977 15.3579 17.7355 15.3579H5.4568L4.63477 5.8135ZM6.27843 7.41709L6.83316 13.8579H17.7355C18.2638 13.8579 18.7351 13.5258 18.9127 13.0283L20.4912 8.60864C20.5472 8.45188 20.4372 8.28521 20.271 8.27502L6.27843 7.41709Z" fill="#4D4D4D"/>
  </svg>
  