<svg width="25" height="24" viewBox="0 0 25 24" fill="none" xmlns="http://www.w3.org/2000/svg">
  <path fill-rule="evenodd" clip-rule="evenodd" d="M2.57129 5C2.57129 3.48122 3.80251 2.25 5.32129 2.25H19.8213C21.3401 2.25 22.5713 3.48122 22.5713 5L22.5713 14.7492C22.5713 16.268 21.3401 17.4992 19.8213 17.4992H12.8149L7.30576 21.4996C6.47944 22.0996 5.32129 21.5093 5.32129 20.4881V17.4992C3.80251 17.4992 2.57129 16.268 2.57129 14.7492V5ZM5.32129 3.75C4.63093 3.75 4.07129 4.30964 4.07129 5V14.7492C4.07129 15.4396 4.63093 15.9992 5.32129 15.9992H5.57129C6.26164 15.9992 6.82129 16.5589 6.82129 17.2492V19.9976L11.9992 16.2377C12.2127 16.0827 12.4698 15.9992 12.7337 15.9992H19.8213C20.5116 15.9992 21.0713 15.4396 21.0713 14.7492L21.0713 5C21.0713 4.30964 20.5116 3.75 19.8213 3.75H5.32129Z" fill="#4D4D4D"/>
  <path fill-rule="evenodd" clip-rule="evenodd" d="M6.26758 8.30049C6.26758 7.88628 6.60336 7.55049 7.01758 7.55049H15.1924C15.6066 7.55049 15.9424 7.88628 15.9424 8.30049C15.9424 8.7147 15.6066 9.05049 15.1924 9.05049H7.01758C6.60336 9.05049 6.26758 8.7147 6.26758 8.30049Z" fill="#A6A6A6"/>
  <path fill-rule="evenodd" clip-rule="evenodd" d="M6.26758 11.7004C6.26758 11.2862 6.60336 10.9504 7.01758 10.9504H11.5713C11.9855 10.9504 12.3213 11.2862 12.3213 11.7004C12.3213 12.1146 11.9855 12.4504 11.5713 12.4504H7.01758C6.60336 12.4504 6.26758 12.1146 6.26758 11.7004Z" fill="#A6A6A6"/>
  </svg>
  