<svg width="25" height="24" viewBox="0 0 25 24" fill="none" xmlns="http://www.w3.org/2000/svg">
  <path fill-rule="evenodd" clip-rule="evenodd" d="M11.1015 10.6877L9.8295 14.5837L13.7153 13.2865L15.0109 9.40543L11.1015 10.6877ZM10.3932 9.34136C10.0904 9.44066 9.85312 9.6783 9.75423 9.98119L7.78725 16.0059C7.65978 16.3963 8.03132 16.7654 8.42089 16.6353L14.4271 14.6302C14.7254 14.5306 14.9594 14.2966 15.059 13.9983L17.0636 7.99365C17.1938 7.60378 16.8241 7.23212 16.4335 7.36022L10.3932 9.34136Z" fill="#A6A6A6"/>
  <path fill-rule="evenodd" clip-rule="evenodd" d="M12.4287 3.75C7.87236 3.75 4.17871 7.44365 4.17871 12C4.17871 16.5563 7.87236 20.25 12.4287 20.25C16.9851 20.25 20.6787 16.5563 20.6787 12C20.6787 7.44365 16.9851 3.75 12.4287 3.75ZM2.67871 12C2.67871 6.61522 7.04393 2.25 12.4287 2.25C17.8135 2.25 22.1787 6.61522 22.1787 12C22.1787 17.3848 17.8135 21.75 12.4287 21.75C7.04393 21.75 2.67871 17.3848 2.67871 12Z" fill="#4D4D4D"/>
  </svg>
  