<svg width="22" height="22" viewBox="0 0 22 22" fill="none" xmlns="http://www.w3.org/2000/svg">
  <g clip-path="url(#clip0_1031_3576)">
  <path d="M22 11C22 4.92491 17.0751 0 11 0C4.92491 0 0 4.92491 0 11C0 16.4904 4.02256 21.0412 9.28125 21.8664V14.1797H6.48828V11H9.28125V8.57656C9.28125 5.81969 10.9235 4.29688 13.4362 4.29688C14.6396 4.29688 15.8984 4.51172 15.8984 4.51172V7.21875H14.5114C13.1449 7.21875 12.7188 8.0667 12.7188 8.93664V11H15.7695L15.2818 14.1797H12.7188V21.8664C17.9774 21.0412 22 16.4905 22 11Z" fill="#1877F2"/>
  <path d="M15.2818 14.1799L15.7695 11.0002H12.7188V8.93688C12.7188 8.06685 13.1449 7.21899 14.5114 7.21899H15.8984V4.51196C15.8984 4.51196 14.6396 4.29712 13.4361 4.29712C10.9235 4.29712 9.28125 5.81993 9.28125 8.57681V11.0002H6.48828V14.1799H9.28125V21.8666C9.84983 21.9557 10.4245 22.0004 11 22.0002C11.5755 22.0004 12.1502 21.9557 12.7188 21.8666V14.1799H15.2818Z" fill="white"/>
  </g>
  <defs>
  <clipPath id="clip0_1031_3576">
  <rect width="22" height="22" fill="white"/>
  </clipPath>
  </defs>
  </svg>
  