<svg width="25" height="24" viewBox="0 0 25 24" fill="none" xmlns="http://www.w3.org/2000/svg">
  <path fill-rule="evenodd" clip-rule="evenodd" d="M4.10693 5C4.10693 4.0335 4.89044 3.25 5.85693 3.25H10.353C11.3195 3.25 12.103 4.0335 12.103 5V9.49609C12.103 10.4626 11.3195 11.2461 10.353 11.2461H5.85693C4.89044 11.2461 4.10693 10.4626 4.10693 9.49609V5ZM5.85693 4.75C5.71886 4.75 5.60693 4.86193 5.60693 5V9.49609C5.60693 9.63416 5.71886 9.74609 5.85693 9.74609H10.353C10.4911 9.74609 10.603 9.63416 10.603 9.49609V5C10.603 4.86193 10.4911 4.75 10.353 4.75H5.85693Z" fill="#A6A6A6"/>
  <path fill-rule="evenodd" clip-rule="evenodd" d="M4.10693 14.5044C4.10693 13.5379 4.89044 12.7544 5.85693 12.7544H10.353C11.3195 12.7544 12.103 13.5379 12.103 14.5044V19.0005C12.103 19.9669 11.3195 20.7505 10.353 20.7505H5.85693C4.89044 20.7505 4.10693 19.9669 4.10693 19.0005V14.5044ZM5.85693 14.2544C5.71886 14.2544 5.60693 14.3663 5.60693 14.5044V19.0005C5.60693 19.1385 5.71886 19.2505 5.85693 19.2505H10.353C10.4911 19.2505 10.603 19.1385 10.603 19.0005V14.5044C10.603 14.3663 10.4911 14.2544 10.353 14.2544H5.85693Z" fill="#4D4D4D"/>
  <path fill-rule="evenodd" clip-rule="evenodd" d="M13.6108 5C13.6108 4.0335 14.3943 3.25 15.3608 3.25H19.8569C20.8234 3.25 21.6069 4.0335 21.6069 5V9.49609C21.6069 10.4626 20.8234 11.2461 19.8569 11.2461H15.3608C14.3943 11.2461 13.6108 10.4626 13.6108 9.49609V5ZM15.3608 4.75C15.2228 4.75 15.1108 4.86193 15.1108 5V9.49609C15.1108 9.63416 15.2228 9.74609 15.3608 9.74609H19.8569C19.995 9.74609 20.1069 9.63416 20.1069 9.49609V5C20.1069 4.86193 19.995 4.75 19.8569 4.75H15.3608Z" fill="#4D4D4D"/>
  <path fill-rule="evenodd" clip-rule="evenodd" d="M13.6108 14.5044C13.6108 13.5379 14.3943 12.7544 15.3608 12.7544H19.8569C20.8234 12.7544 21.6069 13.5379 21.6069 14.5044V19.0005C21.6069 19.9669 20.8234 20.7505 19.8569 20.7505H15.3608C14.3943 20.7505 13.6108 19.9669 13.6108 19.0005V14.5044ZM15.3608 14.2544C15.2228 14.2544 15.1108 14.3663 15.1108 14.5044V19.0005C15.1108 19.1385 15.2228 19.2505 15.3608 19.2505H19.8569C19.995 19.2505 20.1069 19.1385 20.1069 19.0005V14.5044C20.1069 14.3663 19.995 14.2544 19.8569 14.2544H15.3608Z" fill="#A6A6A6"/>
  </svg>
  