<svg width="25" height="24" viewBox="0 0 25 24" fill="none" xmlns="http://www.w3.org/2000/svg">
  <path fill-rule="evenodd" clip-rule="evenodd" d="M2.28564 5C2.28564 3.48122 3.51686 2.25 5.03564 2.25H19.5356C21.0544 2.25 22.2856 3.48122 22.2856 5L22.2856 14.7492C22.2856 15.3154 22.1137 15.8437 21.8191 16.282L20.5742 15.4452C20.7078 15.2465 20.7856 15.0081 20.7856 14.7492L20.7856 5C20.7856 4.30964 20.226 3.75 19.5356 3.75H5.03564C4.34529 3.75 3.78564 4.30964 3.78564 5V14.7492C3.78564 15.4396 4.34529 15.9992 5.03564 15.9992H5.28564C5.976 15.9992 6.53564 16.5589 6.53564 17.2492V19.7914L10.4168 16.3178C10.6461 16.1126 10.9429 15.9992 11.2505 15.9992H12.5826V17.4992H11.346L7.11927 21.2821C6.31408 22.0027 5.03564 21.4312 5.03564 20.3506V17.4992C3.51686 17.4992 2.28564 16.268 2.28564 14.7492V5Z" fill="#4D4D4D"/>
  <path fill-rule="evenodd" clip-rule="evenodd" d="M5.98193 8.30049C5.98193 7.88628 6.31772 7.55049 6.73193 7.55049H14.9067C15.321 7.55049 15.6567 7.88628 15.6567 8.30049C15.6567 8.7147 15.321 9.05049 14.9067 9.05049H6.73193C6.31772 9.05049 5.98193 8.7147 5.98193 8.30049Z" fill="#A6A6A6"/>
  <path fill-rule="evenodd" clip-rule="evenodd" d="M5.98193 11.7004C5.98193 11.2862 6.31772 10.9504 6.73193 10.9504H11.2856C11.6999 10.9504 12.0356 11.2862 12.0356 11.7004C12.0356 12.1146 11.6999 12.4504 11.2856 12.4504H6.73193C6.31772 12.4504 5.98193 12.1146 5.98193 11.7004Z" fill="#A6A6A6"/>
  <path fill-rule="evenodd" clip-rule="evenodd" d="M17.1542 13.2376C15.1487 13.2376 13.5229 14.8633 13.5229 16.8688C13.5229 18.8742 15.1487 20.5 17.1542 20.5C19.1596 20.5 20.7854 18.8742 20.7854 16.8688C20.7854 14.8633 19.1596 13.2376 17.1542 13.2376ZM12.0229 16.8688C12.0229 14.0349 14.3203 11.7376 17.1542 11.7376C19.9881 11.7376 22.2854 14.0349 22.2854 16.8688C22.2854 19.7027 19.9881 22 17.1542 22C14.3203 22 12.0229 19.7027 12.0229 16.8688Z" fill="#4D4D4D"/>
  <path fill-rule="evenodd" clip-rule="evenodd" d="M14.7993 16.8688C14.7993 16.4546 15.1351 16.1188 15.5493 16.1188H18.7623C19.1765 16.1188 19.5123 16.4546 19.5123 16.8688C19.5123 17.283 19.1765 17.6188 18.7623 17.6188H15.5493C15.1351 17.6188 14.7993 17.283 14.7993 16.8688Z" fill="#A6A6A6"/>
  <path fill-rule="evenodd" clip-rule="evenodd" d="M17.1558 19.2253C16.7415 19.2253 16.4058 18.8895 16.4058 18.4753L16.4058 15.2623C16.4058 14.8481 16.7415 14.5123 17.1558 14.5123C17.57 14.5123 17.9058 14.8481 17.9058 15.2623L17.9058 18.4753C17.9058 18.8895 17.57 19.2253 17.1558 19.2253Z" fill="#A6A6A6"/>
  </svg>
  