<svg width="24" height="24" viewBox="0 0 24 24" fill="none" xmlns="http://www.w3.org/2000/svg">
  <path fill-rule="evenodd" clip-rule="evenodd" d="M9.43123 18.7837C9.57095 19.121 9.77574 19.4275 10.0339 19.6857C10.2921 19.9439 10.5986 20.1487 10.9359 20.2884C11.2732 20.4281 11.6347 20.5 11.9998 20.5C12.3649 20.5 12.7265 20.4281 13.0638 20.2884C13.4011 20.1487 13.7076 19.9439 13.9657 19.6857C14.2239 19.4275 14.4287 19.121 14.5684 18.7837L15.9542 19.3577C15.7391 19.877 15.4239 20.3489 15.0264 20.7464C14.6289 21.1438 14.1571 21.4591 13.6378 21.6742C13.1185 21.8893 12.5619 22 11.9998 22C11.4377 22 10.8812 21.8893 10.3619 21.6742C9.84255 21.4591 9.3707 21.1438 8.97325 20.7464C8.57579 20.3489 8.26051 19.877 8.04541 19.3577L9.43123 18.7837Z" fill="#A6A6A6"/>
  <path fill-rule="evenodd" clip-rule="evenodd" d="M12 3.50267C11.5707 3.50267 11.2227 3.8507 11.2227 4.28001L11.2227 4.58215C11.2227 4.99637 10.8869 5.33215 10.4727 5.33215C10.0584 5.33215 9.72266 4.99637 9.72266 4.58215L9.72266 4.28001C9.72266 3.02227 10.7423 2.00267 12 2.00267C13.2577 2.00267 14.2773 3.02227 14.2773 4.28001L14.2773 4.5C14.2773 4.91421 13.9416 5.25 13.5273 5.25C13.1131 5.25 12.7773 4.91421 12.7773 4.5L12.7773 4.28001C12.7773 3.8507 12.4293 3.50267 12 3.50267Z" fill="#A6A6A6"/>
  <path fill-rule="evenodd" clip-rule="evenodd" d="M5.42746 10.5726C5.42746 6.94266 8.37012 4 12.0001 4C13.5205 4 14.9222 4.51717 16.036 5.38472L15.1142 6.56808C14.2546 5.89846 13.1749 5.5 12.0001 5.5C9.19855 5.5 6.92746 7.77108 6.92746 10.5726V14.0664C6.92746 14.4806 6.59168 14.8164 6.17746 14.8164H6C5.30964 14.8164 4.75 15.376 4.75 16.0664L4.75 16.6168C4.75001 17.3071 5.30965 17.8667 6 17.8667H18.0002C18.6905 17.8667 19.2502 17.3071 19.2502 16.6167V16.0664C19.2502 15.376 18.6905 14.8164 18.0002 14.8164H17.8227C17.4085 14.8164 17.0727 14.4806 17.0727 14.0664V11.3174H18.5727V13.3761C19.8167 13.6395 20.7502 14.7439 20.7502 16.0664V16.6167C20.7502 18.1355 19.5189 19.3667 18.0002 19.3667H6C4.48123 19.3667 3.25001 18.1355 3.25 16.6168L3.25 16.0664C3.24999 14.744 4.18347 13.6395 5.42746 13.3761V10.5726Z" fill="#4D4D4D"/>
  <path fill-rule="evenodd" clip-rule="evenodd" d="M17 6.48941C15.8954 6.48941 15 7.38484 15 8.48941C15 9.59398 15.8954 10.4894 17 10.4894C18.1046 10.4894 19 9.59398 19 8.48941C19 7.38484 18.1046 6.48941 17 6.48941ZM13.5 8.48941C13.5 6.55641 15.067 4.98941 17 4.98941C18.933 4.98941 20.5 6.55641 20.5 8.48941C20.5 10.4224 18.933 11.9894 17 11.9894C15.067 11.9894 13.5 10.4224 13.5 8.48941Z" fill="#A6A6A6"/>
  </svg>
  