<svg width="25" height="24" viewBox="0 0 25 24" fill="none" xmlns="http://www.w3.org/2000/svg">
  <path fill-rule="evenodd" clip-rule="evenodd" d="M12.7144 4.75C11.1956 4.75 9.96436 5.98122 9.96436 7.5C9.96436 9.01878 11.1956 10.25 12.7144 10.25C14.2331 10.25 15.4644 9.01878 15.4644 7.5C15.4644 5.98122 14.2331 4.75 12.7144 4.75ZM8.46436 7.5C8.46436 5.15279 10.3671 3.25 12.7144 3.25C15.0616 3.25 16.9644 5.15279 16.9644 7.5C16.9644 9.84721 15.0616 11.75 12.7144 11.75C10.3671 11.75 8.46436 9.84721 8.46436 7.5Z" fill="#A6A6A6"/>
  <path fill-rule="evenodd" clip-rule="evenodd" d="M4.96436 18C4.96436 15.3766 7.091 13.25 9.71436 13.25H15.7144C18.3377 13.25 20.4644 15.3766 20.4644 18V20C20.4644 20.9665 19.6809 21.75 18.7144 21.75H6.71436C5.74786 21.75 4.96436 20.9665 4.96436 20V18ZM9.71436 14.75C7.91943 14.75 6.46436 16.2051 6.46436 18V20C6.46436 20.1381 6.57628 20.25 6.71436 20.25H18.7144C18.8524 20.25 18.9644 20.1381 18.9644 20V18C18.9644 16.2051 17.5093 14.75 15.7144 14.75H9.71436Z" fill="#4D4D4D"/>
  </svg>
  