<svg width="25" height="24" viewBox="0 0 25 24" fill="none" xmlns="http://www.w3.org/2000/svg">
  <path fill-rule="evenodd" clip-rule="evenodd" d="M19.5416 6.57659C18.0254 5.06039 15.5671 5.06039 14.0509 6.57659L13.046 7.58157C12.7051 7.92246 12.1524 7.92246 11.8115 7.58157L10.8065 6.57659C9.29031 5.06039 6.83206 5.06039 5.31586 6.57659C3.79966 8.09279 3.79966 10.551 5.31586 12.0672L12.4287 19.1801L19.5416 12.0672C21.0578 10.551 21.0578 8.09279 19.5416 6.57659ZM12.9903 5.51593C15.0923 3.41394 18.5003 3.41394 20.6022 5.51593C22.7042 7.61791 22.7042 11.0259 20.6022 13.1279L13.3936 20.3365C12.8607 20.8694 11.9967 20.8694 11.4639 20.3365L4.2552 13.1279C2.15321 11.0259 2.15321 7.61792 4.2552 5.51593C6.35719 3.41394 9.76518 3.41394 11.8672 5.51593L12.4287 6.07748L12.9903 5.51593Z" fill="#A6A6A6"/>
  </svg>
  